<?xml version="1.0" encoding="UTF-8" standalone="no"?>
<!-- Created with Inkscape (http://www.inkscape.org/) -->

<svg
   version="1.1"
   id="svg2"
   xml:space="preserve"
   width="1066.6667"
   height="1066.6667"
   viewBox="0 0 1066.6667 1066.6667"
   sodipodi:docname="chaotic-red-and-black-polka-dots-on-white-background-seamless-vector-pattern.eps"
   xmlns:inkscape="http://www.inkscape.org/namespaces/inkscape"
   xmlns:sodipodi="http://sodipodi.sourceforge.net/DTD/sodipodi-0.dtd"
   xmlns="http://www.w3.org/2000/svg"
   xmlns:svg="http://www.w3.org/2000/svg"><defs
     id="defs6"><clipPath
       clipPathUnits="userSpaceOnUse"
       id="clipPath14"><path
         d="M 0,4005 H 3963 V 0 H 0 Z"
         id="path12" /></clipPath><pattern
       patternTransform="matrix(10,0,0,10,0,3995)"
       patternUnits="userSpaceOnUse"
       x="0"
       y="0"
       width="396.246"
       height="400.469"
       id="pattern308"><g
         transform="scale(0.1)"
         id="g306"><g
           id="g304"><g
             clip-path="url(#clipPath14)"
             id="g302"><path
               d="m 3962.46,4004.69 -3962.3896875,0 0,-4004.69 L 3962.46,0 l 0,4004.69"
               style="fill:#e9e9e9;fill-opacity:1;fill-rule:evenodd;stroke:none"
               id="path16" /><path
               d="m 3397.93,4004.69 c 3.73,-3.82 7.43,-7.64 11.14,-11.46 19.33,-19.87 19.59,-46.47 0.63,-63.95 -17.3,-15.93 -43.64,-15.48 -60.44,1.05 -18.27,17.97 -17.21,45.09 2.63,63.78 3.97,3.74 8.33,7.06 12.51,10.58 11.18,0 22.36,0 33.53,0"
               style="fill:#231f20;fill-opacity:1;fill-rule:evenodd;stroke:none"
               id="path18" /><path
               d="m 3962.39,3804.71 c -3.96,-4.94 -7.53,-10.28 -11.98,-14.76 -18.28,-18.47 -46.84,-18.3 -63.98,0.06 -16.64,17.84 -15.45,45.11 2.65,61.48 17.68,15.97 44.97,14.58 61.94,-3.52 4.35,-4.64 7.61,-10.3 11.37,-15.48 0,-9.26 0,-18.52 0,-27.78"
               style="fill:#231f20;fill-opacity:1;fill-rule:evenodd;stroke:none"
               id="path20" /><path
               d="m 0,3554.73 c 9.29688,8.7 17.1719,20.76 28.1953,25.37 21.0899,8.83 40.461,2.38 53.1914,-17.57 11.9961,-18.78 7.0235,-44.2 -11.5273,-56.71 -19.2344,-12.98 -38.6797,-11.96 -56.1524,3.77 -5.40622,4.88 -9.17966,11.54 -13.707,17.37 0,9.26 0,18.51 0,27.77"
               style="fill:#231f20;fill-opacity:1;fill-rule:evenodd;stroke:none"
               id="path22" /><path
               d="m 3694.44,1072.89 c 0.44,35.65 30.72,65.08 66.42,64.61 35.9,-0.47 65.4,-30.51 64.96,-66.13 -0.44,-35.53 -31.05,-65.35 -66.49,-64.77 -35.81,0.59 -65.35,30.74 -64.89,66.29"
               style="fill:#231f20;fill-opacity:1;fill-rule:evenodd;stroke:none"
               id="path24" /><path
               d="m 3693.64,1969.63 c -36.27,0.31 -65.83,29.95 -65.31,65.45 0.52,35.62 30.63,64.71 66.63,64.37 35.95,-0.35 65.62,-30.21 65.24,-65.68 -0.39,-35.82 -30.12,-64.47 -66.56,-64.14"
               style="fill:#ed1c24;fill-opacity:1;fill-rule:evenodd;stroke:none"
               id="path26" /><path
               d="m 361.93,3640.65 c 36.093,0.4 66.136,-28.72 66.484,-64.44 0.34,-35.57 -29.289,-65.42 -65.254,-65.75 -35.933,-0.32 -65.941,28.87 -66.328,64.52 -0.394,35.78 28.836,65.26 65.098,65.67"
               style="fill:#ed1c24;fill-opacity:1;fill-rule:evenodd;stroke:none"
               id="path28" /><path
               d="m 2811.84,3254.38 c -36.08,-0.49 -66.24,28.39 -66.86,64.01 -0.62,35.61 28.65,65.22 64.96,65.68 36.43,0.46 66.33,-28.04 66.93,-63.78 0.57,-35.34 -29.1,-65.42 -65.03,-65.91"
               style="fill:#ed1c24;fill-opacity:1;fill-rule:evenodd;stroke:none"
               id="path30" /><path
               d="m 596.617,2321.83 c 0.547,36.01 30.512,64.98 66.371,64.17 36.129,-0.8 64.625,-30.42 64.067,-66.59 -0.551,-35.92 -30.438,-64.71 -66.485,-64.04 -36.195,0.65 -64.511,30.07 -63.953,66.46"
               style="fill:#ed1c24;fill-opacity:1;fill-rule:evenodd;stroke:none"
               id="path32" /><path
               d="m 2789.63,761.172 c 36.21,-0.274 65.67,-29.746 65.32,-65.352 -0.36,-35.761 -30.07,-64.433 -66.47,-64.179 -36.19,0.254 -65.84,29.843 -65.46,65.312 0.38,35.547 30.4,64.492 66.61,64.219"
               style="fill:#231f20;fill-opacity:1;fill-rule:evenodd;stroke:none"
               id="path34" /><path
               d="m 1592.75,787.676 c -36.12,0.137 -65.87,29.59 -65.71,65.097 0.14,35.665 29.86,64.571 66.24,64.415 36.35,-0.137 65.84,-29.297 65.66,-64.942 -0.18,-35.605 -29.99,-64.707 -66.19,-64.57"
               style="fill:#231f20;fill-opacity:1;fill-rule:evenodd;stroke:none"
               id="path36" /><path
               d="m 213.07,1755.1 c -35.82,-0.08 -65.902,29.61 -66,65.11 -0.097,35.45 29.969,65.2 65.903,65.18 36.172,0 65.84,-29.32 65.84,-65.06 0.003,-35.58 -29.793,-65.15 -65.743,-65.23"
               style="fill:#231f20;fill-opacity:1;fill-rule:evenodd;stroke:none"
               id="path38" /><path
               d="m 212.637,2782.04 c -0.258,-35.75 -30.196,-65.28 -65.922,-65.05 -35.801,0.24 -64.9142,29.97 -64.6681,66.07 0.2344,36.05 29.8791,65.37 65.7111,65.02 35.801,-0.34 65.14,-30.21 64.879,-66.04"
               style="fill:#231f20;fill-opacity:1;fill-rule:evenodd;stroke:none"
               id="path40" /><path
               d="m 2342.04,1737.48 c -0.33,35.59 29.33,65.7 65.1,66.09 35.57,0.39 66,-29.39 66.34,-64.94 0.35,-35.52 -29.44,-65.7 -65.2,-66.03 -35.68,-0.33 -65.92,29.28 -66.24,64.88"
               style="fill:#ed1c24;fill-opacity:1;fill-rule:evenodd;stroke:none"
               id="path42" /><path
               d="m 2074.04,877.09 c -36.17,0.273 -65.47,29.707 -65.19,65.527 0.27,35.918 29.8,64.533 66.27,64.243 36.58,-0.3 65.43,-29.223 65.09,-65.297 -0.32,-35.782 -30.03,-64.747 -66.17,-64.473"
               style="fill:#ed1c24;fill-opacity:1;fill-rule:evenodd;stroke:none"
               id="path44" /><path
               d="m 3803.72,3543.06 c -36.14,0.64 -65.09,30.36 -64.39,66.15 0.69,36.01 30.2,63.97 66.93,63.43 36.29,-0.53 65.33,-30.21 64.52,-65.95 -0.82,-35.84 -30.78,-64.26 -67.06,-63.63"
               style="fill:#ed1c24;fill-opacity:1;fill-rule:evenodd;stroke:none"
               id="path46" /><path
               d="m 1391.32,2408.62 c -36.4,-0.08 -65.93,28.83 -66.02,64.62 -0.09,35.55 29.68,65.08 65.68,65.14 36.12,0.06 66.01,-29.2 66.2,-64.8 0.18,-35.53 -29.59,-64.88 -65.86,-64.96"
               style="fill:#231f20;fill-opacity:1;fill-rule:evenodd;stroke:none"
               id="path48" /><path
               d="m 1565.05,2116.92 c 0.17,-35.8 -29.32,-65.61 -65.14,-65.81 -35.81,-0.21 -65.38,29.26 -65.49,65.26 -0.11,36.21 28.9,65.55 64.93,65.66 35.86,0.11 65.53,-29.29 65.7,-65.11"
               style="fill:#231f20;fill-opacity:1;fill-rule:evenodd;stroke:none"
               id="path50" /><path
               d="m 417.41,135.586 c 36.258,0.156 65.543,-28.887 65.578,-65.0001 C 483.012,34.5117 453.824,5.23438 417.793,5.19531 381.832,5.15625 352.227,34.4727 352.105,70.2344 351.98,106.191 381.184,135.43 417.41,135.586"
               style="fill:#ed1c24;fill-opacity:1;fill-rule:evenodd;stroke:none"
               id="path52" /><path
               d="m 1022.53,1495.41 c 0.2,35.92 29.72,65.04 65.73,64.86 36.32,-0.17 65.05,-29.12 64.93,-65.45 -0.12,-36.25 -29.28,-65.11 -65.53,-64.88 -36.22,0.22 -65.33,29.49 -65.13,65.47"
               style="fill:#ed1c24;fill-opacity:1;fill-rule:evenodd;stroke:none"
               id="path54" /><path
               d="m 1117.21,3222.98 c 36.68,0.47 66.25,-27.68 66.86,-63.66 0.61,-35.6 -28.67,-65.48 -64.73,-66 -36.07,-0.54 -66.32,28.3 -67.05,63.9 -0.74,35.49 28.7,65.3 64.92,65.76"
               style="fill:#231f20;fill-opacity:1;fill-rule:evenodd;stroke:none"
               id="path56" /><path
               d="m 3600.87,3849.27 c 36.07,-0.52 65.18,-30.24 64.68,-66 -0.51,-35.94 -30.14,-64.27 -66.72,-63.79 -36.31,0.47 -65.56,30.14 -64.87,65.81 0.7,35.74 30.79,64.52 66.91,63.98"
               style="fill:#231f20;fill-opacity:1;fill-rule:evenodd;stroke:none"
               id="path58" /><path
               d="m 3310.88,1534.59 c 0.31,-36.17 -28.55,-65.33 -64.9,-65.55 -36.28,-0.21 -65.75,28.62 -65.97,64.57 -0.23,35.86 28.99,65.34 65,65.61 36.3,0.25 65.58,-28.46 65.87,-64.63"
               style="fill:#231f20;fill-opacity:1;fill-rule:evenodd;stroke:none"
               id="path60" /><path
               d="m 2581.76,1380.21 c -0.62,-35.78 -30.61,-64.6 -66.63,-64.04 -36.12,0.57 -65.09,30.29 -64.54,66.15 0.57,35.98 30.43,64.59 66.67,63.93 36.37,-0.66 65.13,-30.12 64.5,-66.04"
               style="fill:#231f20;fill-opacity:1;fill-rule:evenodd;stroke:none"
               id="path62" /><path
               d="m 1832.21,2847.83 c -36.31,0.25 -65.7,29.62 -65.37,65.28 0.34,35.64 30.22,64.57 66.44,64.34 36.12,-0.25 65.76,-29.88 65.42,-65.4 -0.35,-35.74 -30.11,-64.49 -66.49,-64.22"
               style="fill:#ed1c24;fill-opacity:1;fill-rule:evenodd;stroke:none"
               id="path64" /><path
               d="m 2313.09,3066.82 c 36.56,0.53 66.3,-27.64 67.01,-63.46 0.7,-35.72 -28.34,-65.44 -64.53,-66.03 -36.31,-0.6 -66.31,27.81 -67.16,63.58 -0.83,35.54 28.45,65.38 64.68,65.91"
               style="fill:#231f20;fill-opacity:1;fill-rule:evenodd;stroke:none"
               id="path66" /><path
               d="m 258.027,1043.16 c -36.605,0.53 -64.558,29.34 -63.968,65.96 0.589,36.49 29.492,64.16 66.371,63.56 36.648,-0.61 64.715,-29.46 64.14,-65.92 -0.57,-36.17 -29.8,-64.1 -66.543,-63.6"
               style="fill:#ed1c24;fill-opacity:1;fill-rule:evenodd;stroke:none"
               id="path68" /><path
               d="m 3610.31,280.137 c 0.59,-36.094 -28.01,-65.332 -64.45,-65.938 -36.54,-0.586 -65.92,27.637 -66.45,63.848 -0.52,36.172 28.15,65.625 64.31,66.055 36.26,0.449 66,-28.125 66.59,-63.965"
               style="fill:#ed1c24;fill-opacity:1;fill-rule:evenodd;stroke:none"
               id="path70" /><path
               d="m 2884.48,2359.22 c -0.2,-36.11 -29.48,-65.12 -65.53,-64.94 -36.12,0.18 -64.95,29.4 -64.8,65.67 0.15,36.04 29.66,65.37 65.53,65.11 35.98,-0.25 65.01,-29.73 64.8,-65.84"
               style="fill:#231f20;fill-opacity:1;fill-rule:evenodd;stroke:none"
               id="path72" /><path
               d="m 1095.89,470.586 c -36.3,0.176 -65.6,29.492 -65.25,65.293 0.36,35.82 30.01,64.551 66.35,64.258 36.33,-0.274 65.42,-29.473 65.11,-65.352 -0.3,-36.015 -29.55,-64.375 -66.21,-64.199"
               style="fill:#231f20;fill-opacity:1;fill-rule:evenodd;stroke:none"
               id="path74" /><path
               d="m 3713.6,2746.9 c 0.11,-36.15 -28.8,-64.89 -65.36,-64.99 -36.38,-0.1 -65.68,28.7 -65.77,64.65 -0.09,36.09 28.85,64.81 65.4,64.89 36.69,0.09 65.63,-28.33 65.73,-64.55"
               style="fill:#231f20;fill-opacity:1;fill-rule:evenodd;stroke:none"
               id="path76" /><path
               d="m 155.996,3816.61 c 36.649,0.56 66.293,-27.44 67.074,-63.35 0.778,-35.92 -27.941,-65.48 -64.281,-66.16 -36.422,-0.67 -66.2773,27.5 -67.1913,63.4 -0.8985,35.64 28.2383,65.55 64.3983,66.11"
               style="fill:#231f20;fill-opacity:1;fill-rule:evenodd;stroke:none"
               id="path78" /><path
               d="m 3925.39,102.578 c -0.12,-36.2694 -29.04,-64.8241 -65.56,-64.7069 -36.29,0.0977 -65.33,29.082 -65.24,65.1369 0.1,36.25 28.95,64.59 65.65,64.492 36.83,-0.117 65.25,-28.437 65.15,-64.922"
               style="fill:#231f20;fill-opacity:1;fill-rule:evenodd;stroke:none"
               id="path80" /><path
               d="m 102.867,181.934 c -36.7498,-0.235 -65.5975,27.91 -65.8514,64.257 -0.2617,36.426 28.168,65.059 64.8044,65.274 36.66,0.215 65.684,-28.047 65.961,-64.238 0.285,-36.192 -28.402,-65.059 -64.914,-65.293"
               style="fill:#231f20;fill-opacity:1;fill-rule:evenodd;stroke:none"
               id="path82" /><path
               d="m 1702.82,2603.7 c -0.3,-23.65 -21.31,-43.68 -45.16,-43.04 -24.19,0.63 -43.5,21.2 -42.51,45.26 0.94,22.76 20.57,41.71 43.41,41.94 23.62,0.21 44.55,-20.67 44.26,-44.16"
               style="fill:#231f20;fill-opacity:1;fill-rule:evenodd;stroke:none"
               id="path84" /><path
               d="m 1898.62,1164 c -1.34,-23.63 -23.41,-43.1 -46.86,-41.36 -24.05,1.77 -42.71,23.34 -40.74,47.07 1.89,22.75 22.29,40.9 45.04,40.04 23.77,-0.88 43.88,-22.5 42.56,-45.75"
               style="fill:#231f20;fill-opacity:1;fill-rule:evenodd;stroke:none"
               id="path86" /><path
               d="m 2788.73,1116.23 c 0.22,-24.04 -19.79,-44.08 -43.93,-43.98 -23.76,0.09 -44.29,20.99 -43.71,44.53 0.55,22.52 20.14,42.05 42.86,42.73 23.75,0.7 44.56,-19.41 44.78,-43.28"
               style="fill:#231f20;fill-opacity:1;fill-rule:evenodd;stroke:none"
               id="path88" /><path
               d="m 3326.02,499.297 c 23.94,-0.625 43.98,-21.797 42.89,-45.274 -1.06,-22.402 -21.29,-41.777 -43.78,-41.875 -23.76,-0.117 -44.33,20.508 -44.06,44.18 0.28,23.945 20.82,43.594 44.95,42.969"
               style="fill:#231f20;fill-opacity:1;fill-rule:evenodd;stroke:none"
               id="path90" /><path
               d="m 3379.24,956.328 c -23.91,1.856 -43.05,24.004 -40.85,47.242 2.28,23.89 24.42,42.17 48.09,39.71 23.09,-2.42 40.5,-22.56 39.34,-45.526 -1.19,-23.691 -23.14,-43.242 -46.58,-41.426"
               style="fill:#231f20;fill-opacity:1;fill-rule:evenodd;stroke:none"
               id="path92" /><path
               d="m 1163.61,2695.15 c -23.57,-0.83 -44.83,19.43 -45.21,43.07 -0.37,22.74 18.13,42.6 41.07,44.04 23.86,1.51 45.44,-17.59 46.7,-41.34 1.24,-23.35 -18.84,-44.94 -42.56,-45.77"
               style="fill:#231f20;fill-opacity:1;fill-rule:evenodd;stroke:none"
               id="path94" /><path
               d="m 3760.88,586.934 c 23.85,-0.528 44.12,-21.719 43.2,-45.157 -0.92,-23.769 -22.32,-43.242 -46.11,-41.953 -23.25,1.27 -41.53,20.41 -41.51,43.477 0.04,23.906 20.65,44.14 44.42,43.633"
               style="fill:#231f20;fill-opacity:1;fill-rule:evenodd;stroke:none"
               id="path96" /><path
               d="m 2491.13,2481.24 c -0.39,-23.71 -21.42,-43.59 -45.34,-42.88 -24.19,0.72 -43.5,21.37 -42.43,45.41 1.02,22.66 20.9,41.69 43.63,41.78 23.6,0.1 44.51,-20.92 44.14,-44.31"
               style="fill:#231f20;fill-opacity:1;fill-rule:evenodd;stroke:none"
               id="path98" /><path
               d="m 1474.1,3255.81 c 0.78,-23.28 -19.8,-44.49 -43.5,-44.86 -22.74,-0.35 -42.85,18.26 -44.27,40.97 -1.48,23.64 17.88,45.11 41.76,46.3 23.38,1.17 45.22,-18.96 46.01,-42.41"
               style="fill:#231f20;fill-opacity:1;fill-rule:evenodd;stroke:none"
               id="path100" /><path
               d="m 428.32,1961.8 c 0.407,-23.58 -20.261,-44.44 -43.972,-44.4 -22.7,0.04 -42.528,19.06 -43.543,41.78 -1.078,24.09 18.117,44.74 42.261,45.49 23.961,0.74 44.848,-19.05 45.254,-42.87"
               style="fill:#231f20;fill-opacity:1;fill-rule:evenodd;stroke:none"
               id="path102" /><path
               d="m 3289.39,2444.62 c 0.6,-23.77 -19.53,-44.37 -43.55,-44.59 -22.89,-0.21 -42.62,18.34 -43.83,41.21 -1.27,24.01 17.78,44.97 41.85,46.01 23.76,1.04 44.95,-18.8 45.53,-42.63"
               style="fill:#231f20;fill-opacity:1;fill-rule:evenodd;stroke:none"
               id="path104" /><path
               d="m 626.039,3398.56 c -0.148,-24.1 -20.449,-43.81 -44.574,-43.26 -22.809,0.5 -42.36,19.79 -43.008,42.42 -0.676,23.52 19.75,44.55 43.535,44.82 23.809,0.29 44.199,-20.07 44.047,-43.98"
               style="fill:#231f20;fill-opacity:1;fill-rule:evenodd;stroke:none"
               id="path106" /><path
               d="m 2312.81,2209.64 c 24.1,-0.52 43.7,-21.18 42.83,-45.13 -0.82,-22.85 -20.27,-41.84 -43.12,-42.11 -24.1,-0.3 -44.06,19.6 -43.98,43.79 0.08,24.23 20.21,43.98 44.27,43.45"
               style="fill:#231f20;fill-opacity:1;fill-rule:evenodd;stroke:none"
               id="path108" /><path
               d="m 3435.7,685.039 c 1.09,24.141 22.22,43.066 46.13,41.328 23.23,-1.679 40.71,-20.918 40.31,-44.355 -0.42,-24.356 -20.64,-43.692 -44.73,-42.774 -24.18,0.938 -42.8,21.387 -41.71,45.801"
               style="fill:#231f20;fill-opacity:1;fill-rule:evenodd;stroke:none"
               id="path110" /><path
               d="m 1971.26,506.23 c -0.22,-23.671 -21.22,-43.73 -45.1,-43.125 -24.14,0.625 -43.64,21.29 -42.63,45.235 0.96,23.008 20.03,41.25 43.38,41.484 24.08,0.235 44.57,-19.922 44.35,-43.594"
               style="fill:#231f20;fill-opacity:1;fill-rule:evenodd;stroke:none"
               id="path112" /><path
               d="m 333.988,506.191 c -0.414,-23.75 -21.324,-43.398 -45.39,-42.656 -24.297,0.762 -43.563,21.387 -42.368,45.352 1.153,23.066 20.309,41.074 43.711,41.113 24.204,0.039 44.469,-20.117 44.047,-43.809"
               style="fill:#231f20;fill-opacity:1;fill-rule:evenodd;stroke:none"
               id="path114" /><path
               d="m 3028.58,2680.27 c -0.65,-24.02 -21.37,-43.17 -45.61,-42.2 -22.96,0.92 -42.08,20.38 -42.25,43 -0.17,23.58 20.65,44.16 44.41,43.89 23.97,-0.29 44.11,-20.99 43.45,-44.69"
               style="fill:#231f20;fill-opacity:1;fill-rule:evenodd;stroke:none"
               id="path116" /><path
               d="m 1503.74,1371.89 c -0.49,-24.02 -21.28,-43.57 -45.2,-42.53 -23.08,1.01 -41.9,20.29 -42.08,43.12 -0.18,24 19.93,43.95 44.08,43.71 24.48,-0.21 43.71,-19.94 43.2,-44.3"
               style="fill:#231f20;fill-opacity:1;fill-rule:evenodd;stroke:none"
               id="path118" /><path
               d="m 966.363,1173.05 c -0.156,-24.03 -20.523,-43.6 -44.808,-43.05 -22.981,0.51 -42.391,19.59 -43.039,42.27 -0.668,23.71 19.41,44.1 43.617,44.25 24.461,0.2 44.387,-19.39 44.23,-43.47"
               style="fill:#231f20;fill-opacity:1;fill-rule:evenodd;stroke:none"
               id="path120" /><path
               d="m 3182.03,2152.74 c 23.92,-1.39 43.34,-23.15 41.58,-46.56 -1.77,-23.9 -23.42,-42.21 -47.5,-40.23 -23.05,1.9 -41.07,21.97 -40.19,44.74 0.92,23.7 22.54,43.43 46.11,42.05"
               style="fill:#231f20;fill-opacity:1;fill-rule:evenodd;stroke:none"
               id="path122" /><path
               d="m 2053.74,2644.77 c -23.6,-0.66 -44.61,19.71 -44.79,43.41 -0.16,22.87 18.32,42.47 41.33,43.83 24.03,1.41 44.97,-17.65 45.89,-41.76 0.91,-24.08 -18.44,-44.82 -42.43,-45.48"
               style="fill:#231f20;fill-opacity:1;fill-rule:evenodd;stroke:none"
               id="path124" /><path
               d="m 1638.54,1689.26 c 0.31,-24.4 -19.19,-44.4 -43.28,-44.38 -23.98,0 -43.51,20.18 -43.15,44.51 0.36,23.31 18.69,42.04 41.91,42.78 24.2,0.78 44.23,-18.52 44.52,-42.91"
               style="fill:#231f20;fill-opacity:1;fill-rule:evenodd;stroke:none"
               id="path126" /><path
               d="m 2162.32,631.328 c 0.2,-24.043 -19.72,-43.652 -44.18,-43.496 -24.26,0.137 -44.25,20.371 -43.64,44.16 0.58,22.774 19.82,41.66 42.94,42.207 24.49,0.567 44.69,-18.73 44.88,-42.871"
               style="fill:#231f20;fill-opacity:1;fill-rule:evenodd;stroke:none"
               id="path128" /><path
               d="m 3906.93,313.574 c -0.39,-24.258 -20.33,-43.066 -44.97,-42.441 -23.09,0.605 -42.09,19.59 -42.49,42.422 -0.42,23.945 19.48,43.847 43.87,43.886 24.47,0.039 43.96,-19.589 43.59,-43.867"
               style="fill:#231f20;fill-opacity:1;fill-rule:evenodd;stroke:none"
               id="path130" /><path
               d="m 2476.79,643.594 c 24.32,0.195 44.11,-19.434 44.03,-43.672 -0.08,-23.926 -20.65,-44.063 -44.43,-43.496 -22.84,0.527 -42.29,19.785 -42.92,42.5 -0.67,23.789 19.38,44.472 43.32,44.668"
               style="fill:#231f20;fill-opacity:1;fill-rule:evenodd;stroke:none"
               id="path132" /><path
               d="m 3660.92,3347.08 c -0.42,-24.22 -20.59,-43.29 -45,-42.5 -24.26,0.8 -43.55,21.46 -42.33,45.38 1.16,22.79 20.98,41.56 43.78,41.45 24.16,-0.13 43.96,-20.27 43.55,-44.33"
               style="fill:#231f20;fill-opacity:1;fill-rule:evenodd;stroke:none"
               id="path134" /><path
               d="m 2023.57,3349.38 c 0.65,-24.36 -18.53,-44.34 -42.87,-44.64 -24.24,-0.3 -44.33,19.43 -44.31,43.49 0.03,22.76 18.86,42.4 41.72,43.5 23.9,1.15 44.8,-18.34 45.46,-42.35"
               style="fill:#231f20;fill-opacity:1;fill-rule:evenodd;stroke:none"
               id="path136" /><path
               d="m 726.289,1788.73 c 24.57,0.63 44.633,-18.36 44.957,-42.58 0.32,-24.1 -19.516,-43.96 -43.84,-43.88 -23.043,0.07 -42.699,18.63 -43.847,41.38 -1.196,23.58 18.613,44.48 42.73,45.08"
               style="fill:#231f20;fill-opacity:1;fill-rule:evenodd;stroke:none"
               id="path138" /><path
               d="m 3521.66,1937.15 c 23.99,0.76 44.3,-18.87 44.59,-43.09 0.28,-23.26 -17.54,-42.54 -40.72,-44.04 -23.99,-1.54 -45.05,17.44 -46.07,41.56 -1,24.08 18.2,44.83 42.2,45.57"
               style="fill:#231f20;fill-opacity:1;fill-rule:evenodd;stroke:none"
               id="path140" /><path
               d="m 1788.76,3180.67 c -24.37,0 -44.46,19.98 -44.02,43.77 0.44,23.9 20.91,42.93 45.47,42.23 23.43,-0.66 42.08,-19.24 42.44,-42.29 0.37,-24.05 -19.36,-43.7 -43.89,-43.71"
               style="fill:#231f20;fill-opacity:1;fill-rule:evenodd;stroke:none"
               id="path142" /><path
               d="m 103.598,3311.45 c -0.012,24.14 19.98,43.72 44.293,43.37 24.422,-0.35 43.375,-20.22 42.675,-44.71 -0.656,-22.96 -19.726,-41.9 -42.671,-42.4 -23.661,-0.5 -44.286,19.85 -44.297,43.74"
               style="fill:#231f20;fill-opacity:1;fill-rule:evenodd;stroke:none"
               id="path144" /><path
               d="m 2629.55,3074.79 c -24.44,0.53 -43.35,20.5 -42.46,44.86 0.9,24.39 21.02,42.53 45.79,41.31 23.33,-1.16 41.5,-20.15 41.39,-43.27 -0.13,-24.06 -20.31,-43.43 -44.72,-42.9"
               style="fill:#231f20;fill-opacity:1;fill-rule:evenodd;stroke:none"
               id="path146" /><path
               d="m 705.051,1412.29 c 0.633,-24.22 -18.805,-44.71 -42.742,-45.04 -22.719,-0.32 -42.575,18.36 -43.809,41.21 -1.332,24.49 17.043,44.96 41.336,46.07 24.305,1.1 44.566,-17.83 45.215,-42.24"
               style="fill:#231f20;fill-opacity:1;fill-rule:evenodd;stroke:none"
               id="path148" /><path
               d="m 2249.16,1293.95 c 24.41,-0.4 43.44,-20.28 42.76,-44.71 -0.63,-22.93 -19.79,-41.97 -42.66,-42.42 -23.81,-0.47 -44.28,19.72 -44.32,43.69 -0.03,24.18 19.96,43.81 44.22,43.44"
               style="fill:#231f20;fill-opacity:1;fill-rule:evenodd;stroke:none"
               id="path150" /><path
               d="m 2898.9,1696.43 c -0.73,-23.79 -21.69,-43.03 -45.85,-42.05 -24.43,0.99 -43.19,21.46 -41.84,45.62 1.3,23.01 20.72,40.98 44.04,40.74 24.2,-0.25 44.36,-20.72 43.65,-44.31"
               style="fill:#231f20;fill-opacity:1;fill-rule:evenodd;stroke:none"
               id="path152" /><path
               d="m 471.762,3171.91 c 0.051,-24.01 -20.282,-44.25 -44.043,-43.85 -22.875,0.4 -42.051,19.39 -42.746,42.33 -0.743,24.4 18.351,44.57 42.601,44.99 24.235,0.41 44.141,-19.18 44.188,-43.47"
               style="fill:#231f20;fill-opacity:1;fill-rule:evenodd;stroke:none"
               id="path154" /><path
               d="m 363.207,665.352 c -24.754,-0.293 -44.434,18.769 -44.418,43.066 0.016,24.102 19.922,43.281 44.563,42.93 23.25,-0.332 42.488,-18.868 43.273,-41.7 0.813,-23.691 -19.09,-44.003 -43.418,-44.296"
               style="fill:#231f20;fill-opacity:1;fill-rule:evenodd;stroke:none"
               id="path156" /><path
               d="m 2525.29,3557.46 c 24.32,-0.59 43.6,-20.94 42.64,-45.01 -0.98,-24.12 -21.66,-42.75 -46.03,-41.44 -23.41,1.26 -41.16,20.04 -41.04,43.43 0.11,24.25 20.1,43.6 44.43,43.02"
               style="fill:#231f20;fill-opacity:1;fill-rule:evenodd;stroke:none"
               id="path158" /><path
               d="m 1481.55,3845.42 c -0.11,-24.39 -19.77,-43.28 -44.45,-42.72 -23.65,0.55 -42.07,18.66 -42.64,41.96 -0.59,24.22 18.77,43.97 43.25,44.1 24.74,0.15 43.96,-18.85 43.84,-43.34"
               style="fill:#231f20;fill-opacity:1;fill-rule:evenodd;stroke:none"
               id="path160" /><path
               d="m 3588.32,3145.87 c -0.24,-24.46 -19.84,-43.05 -44.71,-42.45 -23.53,0.58 -42.15,18.89 -42.7,42 -0.57,24.04 19.02,43.73 43.61,43.84 24.8,0.11 44.05,-18.96 43.8,-43.39"
               style="fill:#231f20;fill-opacity:1;fill-rule:evenodd;stroke:none"
               id="path162" /><path
               d="m 525.969,2811.05 c -23.739,-0.5 -44.598,19.8 -44.68,43.51 -0.074,22.51 18.949,42.52 41.641,43.79 23.422,1.31 45.254,-18.61 46.164,-42.15 0.906,-23.38 -19.406,-44.65 -43.125,-45.15"
               style="fill:#231f20;fill-opacity:1;fill-rule:evenodd;stroke:none"
               id="path164" /><path
               d="m 1898.53,2114.11 c -24.58,0 -43.94,19.48 -43.52,43.78 0.41,23.38 18.61,41.59 42.19,42.21 24.67,0.66 44.74,-18.15 45.16,-42.29 0.41,-24.08 -19.26,-43.69 -43.83,-43.7"
               style="fill:#231f20;fill-opacity:1;fill-rule:evenodd;stroke:none"
               id="path166" /><path
               d="m 1320.02,736.016 c -0.36,-24.571 -19.94,-43.223 -44.63,-42.5 -23.42,0.683 -41.59,19.121 -41.9,42.5 -0.33,24.433 19.02,44.179 43.28,44.14 24.29,-0.019 43.6,-19.746 43.25,-44.14"
               style="fill:#231f20;fill-opacity:1;fill-rule:evenodd;stroke:none"
               id="path168" /><path
               d="m 1008.74,2157.03 c -0.08,24.18 19.6,43.34 44.28,43.1 24.73,-0.24 43.47,-19.56 42.85,-44.19 -0.57,-23.22 -19.13,-41.49 -42.56,-41.89 -24.53,-0.42 -44.49,18.83 -44.57,42.98"
               style="fill:#231f20;fill-opacity:1;fill-rule:evenodd;stroke:none"
               id="path170" /><path
               d="m 904.023,3561.68 c 24.704,-0.26 43.68,-19.81 42.969,-44.23 -0.679,-23.35 -19.082,-41.27 -42.777,-41.64 -24.93,-0.39 -44.121,18.21 -44.172,42.81 -0.055,24.54 19.145,43.34 43.98,43.06"
               style="fill:#231f20;fill-opacity:1;fill-rule:evenodd;stroke:none"
               id="path172" /><path
               d="m 2051.97,1697.89 c 0.19,-24.96 -19.18,-44 -44.24,-43.51 -23.65,0.46 -42.14,19.12 -42.33,42.75 -0.2,24.75 19.58,44.24 44.36,43.65 23.7,-0.53 42.04,-19.16 42.21,-42.89"
               style="fill:#231f20;fill-opacity:1;fill-rule:evenodd;stroke:none"
               id="path174" /><path
               d="m 3102.31,3840.11 c -0.53,-24.77 -20.59,-43.12 -45.77,-41.89 -23.77,1.16 -41.7,20.29 -41.17,43.9 0.57,24.71 20.76,43.1 45.99,41.86 23.85,-1.16 41.47,-20.04 40.95,-43.87"
               style="fill:#231f20;fill-opacity:1;fill-rule:evenodd;stroke:none"
               id="path176" /><path
               d="m 3004.24,293.008 c -24.12,-0.176 -42.7,17.383 -43.54,41.172 -0.9,25.078 17.76,44.609 42.8,44.824 25,0.195 44.14,-19.141 43.59,-44.082 -0.5,-23.828 -18.81,-41.738 -42.85,-41.914"
               style="fill:#231f20;fill-opacity:1;fill-rule:evenodd;stroke:none"
               id="path178" /><path
               d="m 1382.71,383.594 c 25.12,0.176 44.05,-19.004 43.54,-44.082 -0.49,-23.633 -19.14,-41.934 -42.92,-42.11 -24.9,-0.175 -44.11,19.356 -43.55,44.278 0.52,23.789 18.94,41.758 42.93,41.914"
               style="fill:#231f20;fill-opacity:1;fill-rule:evenodd;stroke:none"
               id="path180" /><path
               d="m 3094.53,692.461 c -7.81,10.352 -22.4,21.269 -21.6,30.918 0.9,10.508 16.07,19.805 25.02,29.629 9.9,-8.945 26.01,-16.758 27.91,-27.149 1.75,-9.492 -11.87,-21.777 -18.71,-32.832 -4.21,-0.195 -8.42,-0.39 -12.62,-0.566"
               style="fill:#231f20;fill-opacity:1;fill-rule:evenodd;stroke:none"
               id="path182" /><path
               d="m 3852.68,846.172 c 7.95,-10.469 22.65,-21.445 21.94,-31.289 -0.73,-10.313 -15.97,-26.738 -25.54,-27.207 -9.32,-0.449 -25.86,14.863 -27.46,25.097 -1.53,9.766 12.06,21.895 19.01,32.989 4.02,0.136 8.03,0.273 12.05,0.41"
               style="fill:#231f20;fill-opacity:1;fill-rule:evenodd;stroke:none"
               id="path184" /><path
               d="m 1415.71,1074.9 c -10.48,-7.89 -21.47,-22.61 -31.27,-21.85 -10.54,0.8 -19.96,16.11 -29.86,25.09 9.03,9.69 16.97,25.49 27.39,27.31 9.71,1.72 22.05,-11.47 33.24,-18.09 0.16,-4.14 0.33,-8.3 0.5,-12.46"
               style="fill:#231f20;fill-opacity:1;fill-rule:evenodd;stroke:none"
               id="path186" /><path
               d="m 1238.57,3503.09 c -11.06,-6.91 -23.08,-20.35 -32.93,-18.93 -10.17,1.46 -25.45,17.57 -25.19,26.9 0.27,9.27 16.57,24.38 26.84,25.24 9.9,0.84 21.07,-13.25 31.69,-20.78 -0.13,-4.15 -0.27,-8.29 -0.41,-12.43"
               style="fill:#231f20;fill-opacity:1;fill-rule:evenodd;stroke:none"
               id="path188" /><path
               d="m 840.961,3125.22 c -10.574,-7.79 -21.602,-22.21 -31.609,-21.54 -10.274,0.68 -26.93,15.89 -27.211,25.14 -0.301,9.47 14.937,25.82 25.148,27.34 9.899,1.47 22.051,-12.1 33.207,-19.08 0.156,-3.95 0.317,-7.91 0.465,-11.86"
               style="fill:#231f20;fill-opacity:1;fill-rule:evenodd;stroke:none"
               id="path190" /><path
               d="m 1712.5,1390.02 c 11.14,6.86 23.28,20.23 33.14,18.73 10.14,-1.52 25.23,-17.79 24.92,-27.19 -0.3,-9.22 -16.82,-24.27 -27.02,-24.96 -10.03,-0.68 -21.07,13.52 -31.66,21.17 0.2,4.07 0.41,8.17 0.62,12.25"
               style="fill:#231f20;fill-opacity:1;fill-rule:evenodd;stroke:none"
               id="path192" /><path
               d="m 120.445,744.121 c -10.98,-7.187 -22.8083,-20.996 -32.7106,-19.746 -10.1719,1.27 -23.9024,16.074 -26.3125,27.09 -3.5899,16.328 10.039,29.062 26.8789,25.84 11.7582,-2.246 21.7262,-13.711 32.5042,-21.035 -0.125,-4.063 -0.242,-8.106 -0.36,-12.149"
               style="fill:#231f20;fill-opacity:1;fill-rule:evenodd;stroke:none"
               id="path194" /><path
               d="m 1625.56,595.059 c -10.65,-7.52 -21.99,-21.719 -31.76,-20.723 -10.42,1.055 -19.36,16.484 -28.94,25.644 9.16,9.415 17.42,24.961 27.75,26.465 9.81,1.426 21.78,-11.836 32.81,-18.632 0.04,-4.258 0.1,-8.516 0.14,-12.754"
               style="fill:#231f20;fill-opacity:1;fill-rule:evenodd;stroke:none"
               id="path196" /><path
               d="m 2194.78,2464.75 c -11.06,-6.89 -23.12,-20.37 -32.88,-18.89 -10.28,1.58 -25.49,17.54 -25.34,27.02 0.13,9.1 16.63,24.21 26.96,25.1 9.92,0.86 21.12,-13.13 31.77,-20.6 -0.17,-4.21 -0.35,-8.42 -0.51,-12.63"
               style="fill:#231f20;fill-opacity:1;fill-rule:evenodd;stroke:none"
               id="path198" /><path
               d="m 3306.7,2739.93 c -11,-7.04 -22.89,-20.65 -32.75,-19.32 -10.24,1.39 -25.88,17.43 -25.59,26.65 0.29,9.48 16.34,24.85 26.62,25.84 9.9,0.94 21.25,-13.25 31.96,-20.8 -0.08,-4.12 -0.16,-8.24 -0.24,-12.37"
               style="fill:#231f20;fill-opacity:1;fill-rule:evenodd;stroke:none"
               id="path200" /><path
               d="m 960.883,1755.59 c -7.461,10.54 -21.574,21.77 -20.567,31.46 1.086,10.37 16.399,19.3 25.504,28.83 9.618,-9.06 25.453,-17.17 27.047,-27.46 1.488,-9.65 -12.125,-21.56 -19.094,-32.5 -4.296,-0.12 -8.597,-0.24 -12.89,-0.33"
               style="fill:#231f20;fill-opacity:1;fill-rule:evenodd;stroke:none"
               id="path202" /><path
               d="m 3913.65,2319.82 c 7.15,-10.77 18.49,-20.84 20.48,-32.49 2.9,-16.84 -10.28,-30.05 -26.57,-26.24 -11,2.58 -25.55,16.49 -26.7,26.67 -1.13,9.83 12.85,21.38 20.19,32.17 4.2,-0.04 8.4,-0.08 12.6,-0.11"
               style="fill:#231f20;fill-opacity:1;fill-rule:evenodd;stroke:none"
               id="path204" /><path
               d="m 2015.06,2237.31 c 7.24,-10.73 21.15,-22.3 19.92,-31.97 -1.3,-10.37 -16.96,-26.43 -26.15,-26.29 -9.65,0.14 -25.35,15.74 -26.71,26.09 -1.27,9.67 12.83,21.32 20.17,32.1 4.25,0.03 8.52,0.05 12.77,0.07"
               style="fill:#231f20;fill-opacity:1;fill-rule:evenodd;stroke:none"
               id="path206" /><path
               d="m 1120.88,2421.58 c -10.63,-7.56 -20.4,-19.33 -32.09,-21.67 -16.71,-3.35 -30.57,9.29 -27.23,25.64 2.23,10.98 15.8,25.88 25.95,27.29 9.9,1.37 21.89,-12.16 32.97,-19.15 0.13,-4.05 0.27,-8.08 0.4,-12.11"
               style="fill:#231f20;fill-opacity:1;fill-rule:evenodd;stroke:none"
               id="path208" /><path
               d="m 1931.25,1643.46 c -10.89,-7.25 -22.51,-21.04 -32.45,-19.94 -10.16,1.15 -24.08,15.62 -26.66,26.52 -3.88,16.39 9.77,29.24 26.48,26.41 11.74,-2.02 21.84,-13.56 32.68,-20.82 -0.02,-4.07 -0.04,-8.13 -0.05,-12.17"
               style="fill:#231f20;fill-opacity:1;fill-rule:evenodd;stroke:none"
               id="path210" /><path
               d="m 439.277,1639.34 c -10.746,-7.52 -22.113,-21.63 -32.066,-20.71 -10.191,0.96 -24.375,15.28 -27.152,26.17 -4.129,16.2 9.004,29.46 25.961,26.78 11.832,-1.87 22.171,-13.06 33.175,-20.1 0.028,-4.04 0.051,-8.08 0.082,-12.14"
               style="fill:#231f20;fill-opacity:1;fill-rule:evenodd;stroke:none"
               id="path212" /><path
               d="m 3386.17,3285.64 c -10.55,-7.58 -21.75,-21.84 -31.48,-20.91 -10.51,1.01 -27.03,16 -27.31,25.27 -0.27,9.46 15.03,25.56 25.43,27.28 9.65,1.59 21.83,-11.94 32.89,-18.83 0.16,-4.27 0.32,-8.54 0.47,-12.81"
               style="fill:#231f20;fill-opacity:1;fill-rule:evenodd;stroke:none"
               id="path214" /><path
               d="m 2469.08,913.691 c -10.66,-7.441 -21.99,-21.503 -31.79,-20.527 -10.42,1.035 -26.86,16.289 -26.94,25.449 -0.1,9.532 15.28,25.469 25.65,26.992 9.73,1.446 21.74,-12.207 32.75,-19.238 0.12,-4.219 0.22,-8.457 0.33,-12.676"
               style="fill:#231f20;fill-opacity:1;fill-rule:evenodd;stroke:none"
               id="path216" /><path
               d="m 1691.23,3474.8 c -11.03,-6.9 -22.97,-20.28 -32.85,-18.92 -10.16,1.41 -25.68,17.51 -25.29,26.61 0.41,9.49 16.44,24.65 26.69,25.55 9.9,0.87 21.14,-13.28 31.79,-20.82 -0.11,-4.14 -0.22,-8.28 -0.34,-12.42"
               style="fill:#231f20;fill-opacity:1;fill-rule:evenodd;stroke:none"
               id="path218" /><path
               d="m 465.195,2572.15 c -7.027,10.88 -20.769,22.8 -19.277,32.35 1.625,10.38 17.637,25.93 26.977,25.67 9.523,-0.27 24.832,-16.35 25.996,-26.79 1.074,-9.61 -13.282,-20.91 -20.84,-31.48 -4.285,0.09 -8.571,0.18 -12.856,0.25"
               style="fill:#231f20;fill-opacity:1;fill-rule:evenodd;stroke:none"
               id="path220" /><path
               d="m 2851.84,1422.27 c -10.74,-7.48 -22.23,-21.68 -32.02,-20.59 -10.47,1.15 -19.36,16.68 -28.96,25.94 9.35,9.39 17.85,24.9 28.32,26.36 9.76,1.35 21.61,-12.24 32.56,-19.27 0.03,-4.14 0.06,-8.28 0.1,-12.44"
               style="fill:#231f20;fill-opacity:1;fill-rule:evenodd;stroke:none"
               id="path222" /><path
               d="m 2264.73,3574.65 c 6.86,-11.09 20.37,-23.26 18.77,-32.98 -1.67,-10.12 -16.88,-23.33 -28.01,-25.39 -16.5,-3.06 -28.97,10.82 -25.28,27.48 2.57,11.55 14.37,21.09 22.03,31.52 4.17,-0.21 8.32,-0.42 12.49,-0.63"
               style="fill:#231f20;fill-opacity:1;fill-rule:evenodd;stroke:none"
               id="path224" /><path
               d="m 2733.22,337.578 c -10.81,-7.051 -22.63,-20.801 -32.17,-19.375 -10.59,1.563 -19.08,17.012 -28.47,26.406 9.55,9.2 18.3,24.395 28.9,25.821 9.56,1.289 21.16,-12.559 31.84,-19.727 -0.03,-4.375 -0.06,-8.75 -0.1,-13.125"
               style="fill:#231f20;fill-opacity:1;fill-rule:evenodd;stroke:none"
               id="path226" /><path
               d="m 1698.47,3785 c -7.15,10.95 -20.93,22.79 -19.6,32.59 1.37,10.1 16.34,23.63 27.41,25.92 16.36,3.41 29.3,-10.01 25.9,-26.84 -2.35,-11.63 -13.95,-21.4 -21.41,-32.02 -4.1,0.12 -8.2,0.24 -12.3,0.35"
               style="fill:#231f20;fill-opacity:1;fill-rule:evenodd;stroke:none"
               id="path228" /><path
               d="m 2788.34,3842.6 c -10.88,-7 -22.75,-20.66 -32.32,-19.23 -10.49,1.58 -18.84,17.11 -28.13,26.56 9.55,9.13 18.32,24.27 28.85,25.61 9.6,1.21 21.11,-12.58 31.78,-19.75 -0.06,-4.4 -0.12,-8.79 -0.18,-13.19"
               style="fill:#231f20;fill-opacity:1;fill-rule:evenodd;stroke:none"
               id="path230" /><path
               d="m 92.168,3036.43 c -10.5625,-7.74 -21.5782,-22.09 -31.5547,-21.41 -10.2617,0.7 -26.9531,15.89 -27.1602,25.05 -0.2226,9.56 14.8946,25.96 25.0664,27.43 9.9024,1.45 22.0235,-12.21 33.1758,-19.25 0.1563,-3.94 0.3164,-7.87 0.4727,-11.82"
               style="fill:#231f20;fill-opacity:1;fill-rule:evenodd;stroke:none"
               id="path232" /><path
               d="m 2306.87,3222.13 c -6.94,10.91 -20.55,22.89 -19,32.43 1.7,10.36 17.52,18.42 27.17,27.5 9.08,-9.6 24.27,-18.55 25.39,-28.99 1.03,-9.62 -13.07,-20.84 -20.49,-31.36 -4.35,0.15 -8.72,0.29 -13.07,0.42"
               style="fill:#231f20;fill-opacity:1;fill-rule:evenodd;stroke:none"
               id="path234" /><path
               d="m 759.027,769.355 c 7.59,-10.664 21.809,-21.933 20.899,-31.835 -0.922,-10.098 -15.375,-24.18 -26.336,-26.915 -16.195,-4.042 -29.738,8.75 -26.957,25.743 1.906,11.718 13.176,21.933 20.262,32.832 4.046,0.058 8.089,0.117 12.132,0.175"
               style="fill:#231f20;fill-opacity:1;fill-rule:evenodd;stroke:none"
               id="path236" /><path
               d="m 2335.56,3870.45 c -11.01,-6.84 -23.16,-20.35 -32.71,-18.73 -10.47,1.78 -18.52,17.53 -27.63,27.19 9.75,8.92 18.85,23.83 29.45,24.96 9.61,1.04 20.84,-12.95 31.35,-20.3 -0.16,-4.38 -0.32,-8.74 -0.46,-13.12"
               style="fill:#231f20;fill-opacity:1;fill-rule:evenodd;stroke:none"
               id="path238" /><path
               d="m 2973.16,2061.37 c -10.49,-7.6 -21.69,-21.93 -31.31,-20.96 -10.56,1.05 -19.68,16.25 -29.42,25.29 9.11,9.54 17.17,25.04 27.65,26.88 9.52,1.68 21.68,-11.5 32.68,-18.13 0.13,-4.36 0.28,-8.72 0.4,-13.08"
               style="fill:#231f20;fill-opacity:1;fill-rule:evenodd;stroke:none"
               id="path240" /><path
               d="m 1682.56,306.289 c -10.6,-7.5 -22,-21.777 -31.6,-20.664 -10.57,1.211 -19.5,16.582 -29.14,25.781 9.27,9.395 17.57,24.746 28.09,26.426 9.58,1.523 21.55,-11.777 32.48,-18.535 0.05,-4.336 0.11,-8.672 0.17,-13.008"
               style="fill:#231f20;fill-opacity:1;fill-rule:evenodd;stroke:none"
               id="path242" /><path
               d="m 848.191,240.918 c -10.734,-7.422 -22.179,-21.523 -32.007,-20.488 -10.368,1.093 -26.489,16.504 -26.641,25.879 -0.152,9.355 15.512,25.234 25.84,26.66 9.793,1.328 21.66,-12.403 32.621,-19.512 0.059,-4.18 0.125,-8.359 0.187,-12.539"
               style="fill:#231f20;fill-opacity:1;fill-rule:evenodd;stroke:none"
               id="path244" /><path
               d="m 585.195,1555.55 c 7.496,-10.61 21.871,-22.11 20.657,-31.6 -1.356,-10.51 -16.973,-19.22 -26.383,-28.72 -9.395,9.3 -24.867,17.74 -26.395,28.19 -1.39,9.57 12.278,21.29 19.313,32.07 4.269,0.02 8.543,0.04 12.808,0.06"
               style="fill:#231f20;fill-opacity:1;fill-rule:evenodd;stroke:none"
               id="path246" /><path
               d="m 249.813,2365.94 c -7.547,10.38 -21.801,21.44 -20.836,30.98 1.058,10.55 16.05,19.71 24.976,29.47 9.856,-8.99 25.852,-16.87 27.742,-27.29 1.719,-9.44 -11.937,-21.63 -18.824,-32.61 -4.355,-0.19 -8.707,-0.37 -13.058,-0.55"
               style="fill:#231f20;fill-opacity:1;fill-rule:evenodd;stroke:none"
               id="path248" /><path
               d="m 707.422,2662.79 c -7.192,10.79 -18.582,20.88 -20.59,32.56 -2.887,16.8 10.27,30.03 26.609,26.11 11.055,-2.65 25.747,-16.53 26.813,-26.64 1.039,-9.86 -13.176,-21.31 -20.691,-32.07 -4.051,0.02 -8.098,0.03 -12.141,0.04"
               style="fill:#231f20;fill-opacity:1;fill-rule:evenodd;stroke:none"
               id="path250" /><path
               d="m 3124,3601.49 c -10.76,-7.11 -22.46,-20.86 -32.05,-19.53 -10.55,1.45 -19.18,16.76 -28.65,26.03 9.45,9.42 18.03,24.97 28.58,26.43 9.58,1.32 21.3,-12.72 32.08,-19.97 0.01,-4.33 0.02,-8.64 0.04,-12.96"
               style="fill:#231f20;fill-opacity:1;fill-rule:evenodd;stroke:none"
               id="path252" /><path
               d="m 3441.3,1282.56 c 7.41,-10.67 21.69,-22.23 20.41,-31.72 -1.4,-10.49 -17.08,-19.08 -26.53,-28.48 -9.34,9.34 -24.7,17.8 -26.22,28.27 -1.37,9.51 12.29,21.19 19.33,31.91 4.35,0 8.68,0 13.01,0.02"
               style="fill:#231f20;fill-opacity:1;fill-rule:evenodd;stroke:none"
               id="path254" /><path
               d="m 1464.69,2903.16 c -7.4,10.77 -21.57,22.37 -20.37,32.1 1.27,10.34 17.1,18.91 26.56,28.26 9.3,-9.37 24.82,-18.02 26.07,-28.36 1.18,-9.74 -12.69,-21.27 -19.93,-32.02 -4.11,0.01 -8.22,0.01 -12.33,0.02"
               style="fill:#231f20;fill-opacity:1;fill-rule:evenodd;stroke:none"
               id="path256" /><path
               d="m 3201.22,1191.56 c 6.94,-11.07 20.56,-23.18 19.01,-32.95 -1.6,-10.09 -18.16,-25.09 -27.63,-24.72 -9.44,0.39 -24.67,16.77 -25.38,26.97 -0.69,9.86 13.89,20.78 21.76,31.25 4.09,-0.2 8.17,-0.37 12.24,-0.55"
               style="fill:#231f20;fill-opacity:1;fill-rule:evenodd;stroke:none"
               id="path258" /><path
               d="m 942.613,2996.6 c 7.856,-10.5 22.348,-21.41 21.723,-31.38 -0.629,-10.09 -14.758,-24.62 -25.613,-27.56 -15.95,-4.32 -30.028,8.03 -27.653,25.12 1.633,11.79 12.707,22.28 19.567,33.36 3.992,0.14 7.98,0.31 11.976,0.46"
               style="fill:#231f20;fill-opacity:1;fill-rule:evenodd;stroke:none"
               id="path260" /><path
               d="m 2280.87,367.676 c -10.48,-7.676 -21.65,-22.149 -31.26,-21.211 -10.62,1.055 -19.82,16.25 -29.64,25.293 9.13,9.531 17.19,25 27.71,26.855 9.52,1.7 21.71,-11.386 32.75,-17.949 0.14,-4.336 0.29,-8.652 0.44,-12.988"
               style="fill:#231f20;fill-opacity:1;fill-rule:evenodd;stroke:none"
               id="path262" /><path
               d="m 3812.56,3071.98 c -7.23,10.79 -21.27,22.59 -19.86,32.1 1.56,10.43 17.38,18.75 27,28 9.23,-9.5 24.6,-18.24 25.89,-28.7 1.18,-9.6 -12.82,-21.04 -20.14,-31.68 -4.3,0.1 -8.59,0.19 -12.89,0.28"
               style="fill:#231f20;fill-opacity:1;fill-rule:evenodd;stroke:none"
               id="path264" /><path
               d="m 2518.41,2743.13 c -7.32,10.55 -21.3,21.9 -20.13,31.42 1.29,10.53 16.46,19.39 25.58,28.98 9.65,-9.23 25.44,-17.48 27.12,-27.97 1.5,-9.45 -12.44,-21.35 -19.57,-32.17 -4.34,-0.08 -8.68,-0.17 -13,-0.26"
               style="fill:#231f20;fill-opacity:1;fill-rule:evenodd;stroke:none"
               id="path266" /><path
               d="m 586.441,558.73 c -10.464,-7.597 -21.531,-21.875 -31.23,-20.996 -10.555,0.938 -27.352,15.743 -27.598,24.864 -0.258,9.59 14.793,25.82 25.168,27.617 9.668,1.66 21.985,-11.836 33.133,-18.672 0.176,-4.258 0.356,-8.535 0.527,-12.813"
               style="fill:#231f20;fill-opacity:1;fill-rule:evenodd;stroke:none"
               id="path268" /><path
               d="m 3001.62,884.355 c -10.78,-7.265 -22.52,-21.328 -32.07,-20 -10.62,1.504 -19.26,17.012 -28.75,26.426 9.53,9.317 18.21,24.688 28.83,26.133 9.58,1.328 21.27,-12.578 32.03,-19.766 0,-4.257 -0.02,-8.535 -0.04,-12.793"
               style="fill:#231f20;fill-opacity:1;fill-rule:evenodd;stroke:none"
               id="path270" /><path
               d="m 3186.1,3111.63 c -10.72,-7.37 -22.33,-21.53 -31.9,-20.29 -10.59,1.39 -19.32,16.89 -28.85,26.23 9.42,9.29 17.95,24.57 28.5,26.11 9.59,1.39 21.36,-12.17 32.19,-19.13 0.01,-4.31 0.03,-8.62 0.06,-12.92"
               style="fill:#231f20;fill-opacity:1;fill-rule:evenodd;stroke:none"
               id="path272" /><path
               d="m 3532.97,2203.06 c -10.81,-7.01 -22.58,-20.62 -32.17,-19.26 -10.55,1.52 -19.11,16.82 -28.53,26.11 9.53,9.3 18.24,24.72 28.8,26.09 9.61,1.25 21.22,-12.78 31.94,-20.08 -0.01,-4.28 -0.02,-8.57 -0.04,-12.86"
               style="fill:#231f20;fill-opacity:1;fill-rule:evenodd;stroke:none"
               id="path274" /><path
               d="m 2663.32,2017.67 c -10.75,-7.6 -22.07,-21.81 -32.07,-20.94 -10.16,0.9 -24.39,15.29 -27.19,26.2 -4.16,16.24 9.11,29.38 25.98,26.77 11.79,-1.82 22.11,-13.03 33.09,-20.03 0.05,-4 0.11,-8 0.19,-12"
               style="fill:#231f20;fill-opacity:1;fill-rule:evenodd;stroke:none"
               id="path276" /><path
               d="m 3076.66,1869.06 c 7.33,-10.84 21.27,-22.36 20.17,-32.28 -1.13,-10.1 -17.13,-26 -26.36,-25.8 -9.63,0.19 -25.53,15.86 -26.53,25.95 -1,9.95 13.27,21.37 20.84,32.15 3.95,-0.02 7.93,-0.02 11.88,-0.02"
               style="fill:#231f20;fill-opacity:1;fill-rule:evenodd;stroke:none"
               id="path278" /><path
               d="m 120.336,2425.84 c -11.09,-6.94 -23.1329,-20.43 -32.9962,-19.01 -10.164,1.47 -23.6523,16.38 -25.8828,27.37 -3.3437,16.46 10.6875,28.89 27.3125,25.55 11.6685,-2.35 21.4185,-14.14 32.0195,-21.71 -0.144,-4.07 -0.301,-8.13 -0.453,-12.2"
               style="fill:#231f20;fill-opacity:1;fill-rule:evenodd;stroke:none"
               id="path280" /><path
               d="m 3826.58,1453.75 c 6.9,-10.94 20.37,-22.85 18.9,-32.54 -1.57,-10.25 -17.73,-25.9 -26.78,-25.41 -9.73,0.53 -24.97,16.41 -25.99,26.74 -0.95,9.73 13.48,20.96 21.14,31.5 4.25,-0.09 8.48,-0.19 12.73,-0.29"
               style="fill:#231f20;fill-opacity:1;fill-rule:evenodd;stroke:none"
               id="path282" /><path
               d="m 3684.71,1449.8 c -11,-7.22 -22.93,-21.15 -32.71,-19.8 -10.42,1.45 -18.8,17.38 -28.05,26.99 9.63,9.03 18.65,24.24 29.11,25.31 9.83,0.98 21.2,-12.96 31.9,-20.33 -0.09,-4.06 -0.17,-8.1 -0.25,-12.17"
               style="fill:#231f20;fill-opacity:1;fill-rule:evenodd;stroke:none"
               id="path284" /><path
               d="m 862.914,3719.77 c -6.68,11.13 -19.883,23.34 -18.25,33.11 1.707,10.21 17.672,18.07 27.399,26.97 8.984,-9.79 24.437,-19.16 25.082,-29.45 0.621,-9.9 -14.086,-20.75 -22.063,-31.17 -4.059,0.18 -8.109,0.35 -12.168,0.54"
               style="fill:#231f20;fill-opacity:1;fill-rule:evenodd;stroke:none"
               id="path286" /><path
               d="m 3713.57,2425.53 c -10.9,-7.15 -22.55,-20.77 -32.53,-19.64 -10.16,1.15 -26.14,17.01 -25.86,26.03 0.27,9.56 16.03,25.14 26.21,26.12 10.01,0.97 21.48,-13.05 32.32,-20.52 -0.04,-3.99 -0.1,-7.98 -0.14,-11.99"
               style="fill:#231f20;fill-opacity:1;fill-rule:evenodd;stroke:none"
               id="path288" /><path
               d="m 3360.57,2323.67 c -11.19,-6.68 -23.41,-19.84 -33.25,-18.26 -10.32,1.65 -18.34,17.44 -27.36,27.05 9.83,8.97 19.18,24.36 29.58,25.08 9.93,0.69 20.94,-13.88 31.48,-21.75 -0.16,-4.05 -0.31,-8.08 -0.45,-12.12"
               style="fill:#231f20;fill-opacity:1;fill-rule:evenodd;stroke:none"
               id="path290" /><path
               d="m 1269.18,1799.75 c -6.93,10.95 -20.63,23.04 -18.99,32.52 1.8,10.41 17.96,25.64 27.46,25.37 9.38,-0.28 24.46,-16.7 25.52,-27.19 0.98,-9.59 -13.47,-20.72 -21.13,-31.17 -4.28,0.15 -8.57,0.31 -12.86,0.47"
               style="fill:#231f20;fill-opacity:1;fill-rule:evenodd;stroke:none"
               id="path292" /><path
               d="m 234.508,1454.53 c 6.707,-11.01 20.156,-23.34 18.34,-32.71 -2.02,-10.43 -17.969,-18.21 -27.852,-27.13 -8.984,9.84 -24.16,19.14 -25.113,29.7 -0.86,9.54 13.84,20.43 21.676,30.77 4.308,-0.22 8.632,-0.41 12.949,-0.63"
               style="fill:#231f20;fill-opacity:1;fill-rule:evenodd;stroke:none"
               id="path294" /><path
               d="m 831.563,1985.53 c -7.516,10.59 -21.575,21.72 -20.735,31.6 0.867,10.18 16.317,26.69 25.25,26.62 9.797,-0.1 25.949,-15.13 27.305,-25.25 1.312,-9.84 -12.586,-21.7 -19.805,-32.67 -4.004,-0.1 -8.012,-0.2 -12.015,-0.3"
               style="fill:#231f20;fill-opacity:1;fill-rule:evenodd;stroke:none"
               id="path296" /><path
               d="m 665.344,1101.84 c -10.699,-7.29 -22.278,-21.31 -31.871,-20.08 -10.598,1.37 -19.371,16.7 -28.938,25.97 9.395,9.48 17.871,25.06 28.449,26.63 9.559,1.4 21.414,-12.52 32.254,-19.69 0.035,-4.28 0.071,-8.56 0.106,-12.83"
               style="fill:#231f20;fill-opacity:1;fill-rule:evenodd;stroke:none"
               id="path298" /><path
               d="m 3179.2,96.0742 c -10.88,-6.9726 -22.7,-20.5078 -32.38,-19.1601 -10.43,1.4453 -18.87,16.914 -28.17,26.2499 9.48,9.297 18.22,24.844 28.66,26.074 9.72,1.153 21.26,-12.949 31.99,-20.332 -0.02,-4.277 -0.06,-8.554 -0.1,-12.8318"
               style="fill:#231f20;fill-opacity:1;fill-rule:evenodd;stroke:none"
               id="path300" /></g></g></g></pattern></defs><sodipodi:namedview
     id="namedview4"
     pagecolor="#ffffff"
     bordercolor="#666666"
     borderopacity="1.0"
     inkscape:pageshadow="2"
     inkscape:pageopacity="0.0"
     inkscape:pagecheckerboard="0" /><g
     id="g8"
     inkscape:groupmode="layer"
     inkscape:label="ink_ext_XXXXXX"
     transform="matrix(1.3333333,0,0,-1.3333333,0,1066.6667)"><g
       id="g10"
       transform="scale(0.1)"><path
         d="M 8000,0 H 0 V 8000 H 8000 V 0"
         style="fill:url(#pattern308);fill-opacity:1;fill-rule:evenodd;stroke:none"
         id="path310" /></g></g></svg>
